<svg width="125" height="32" viewBox="0 0 125 32" fill="none" xmlns="http://www.w3.org/2000/svg">
<path d="M8.04 31.32C3.02667 31.32 0.52 30.2133 0.52 28C0.52 27.3067 0.706667 26.76 1.08 26.36C1.45333 25.96 1.94667 25.76 2.56 25.76C2.82667 25.76 3.08 25.8 3.32 25.88C3.58667 25.9333 4.09333 26.08 4.84 26.32C5.16 26.4267 5.58667 26.5333 6.12 26.64C6.65333 26.7467 7.17333 26.8 7.68 26.8C8.64 26.8 9.32 26.68 9.72 26.44C10.12 26.2 10.32 25.8 10.32 25.24C10.32 24.7867 10.2133 24.44 10 24.2C9.78667 23.9333 9.33333 23.68 8.64 23.44C7.94667 23.2 6.86667 22.8667 5.4 22.44C4.06667 22.0667 2.98667 21.4 2.16 20.44C1.36 19.4533 0.96 18.24 0.96 16.8C0.96 14.7733 1.69333 13.2267 3.16 12.16C4.62667 11.0933 6.64 10.56 9.2 10.56C11.12 10.56 12.6267 10.8267 13.72 11.36C14.8133 11.8933 15.36 12.6667 15.36 13.68C15.36 14.32 15.1733 14.8533 14.8 15.28C14.4267 15.7067 13.92 15.92 13.28 15.92C13.0133 15.92 12.6933 15.88 12.32 15.8C11.9733 15.72 11.5467 15.6133 11.04 15.48C10.6667 15.3467 10.2667 15.24 9.84 15.16C9.44 15.08 9.01333 15.04 8.56 15.04C7.28 15.04 6.64 15.4933 6.64 16.4C6.64 16.9333 6.89333 17.3867 7.4 17.76C7.90667 18.1067 8.88 18.4933 10.32 18.92C12.2933 19.5067 13.7467 20.2933 14.68 21.28C15.6133 22.24 16.08 23.52 16.08 25.12C16.08 26.9867 15.36 28.4933 13.92 29.64C12.5067 30.76 10.5467 31.32 8.04 31.32ZM27.2719 31.32C24.6052 31.32 22.5252 30.7067 21.0319 29.48C19.5385 28.2267 18.7919 26.6133 18.7919 24.64C18.7919 22.32 19.7652 20.64 21.7119 19.6C23.6852 18.56 26.5652 18.2 30.3519 18.52C30.1652 17.2933 29.7785 16.4667 29.1919 16.04C28.6052 15.5867 27.8985 15.36 27.0719 15.36C26.4052 15.36 25.8452 15.4 25.3919 15.48C24.9652 15.5333 24.5652 15.6 24.1919 15.68C23.8185 15.76 23.3652 15.8 22.8319 15.8C22.1119 15.8 21.5385 15.68 21.1119 15.44C20.6852 15.1733 20.4719 14.6533 20.4719 13.88C20.4719 12.7867 20.9385 11.9867 21.8719 11.48C22.8319 10.9467 24.3385 10.68 26.3919 10.68C29.6452 10.68 32.0585 11.6133 33.6319 13.48C35.2052 15.32 35.9919 17.7867 35.9919 20.88C35.9919 24.4533 35.3385 27.0933 34.0319 28.8C32.7519 30.48 30.4985 31.32 27.2719 31.32ZM24.5519 24.64C24.5519 26.16 25.5785 26.92 27.6319 26.92C28.2985 26.92 28.8185 26.8 29.1919 26.56C29.5652 26.32 29.8319 25.84 29.9919 25.12C30.1785 24.4 30.3119 23.32 30.3919 21.88C30.2585 22.0133 30.0852 22.1067 29.8719 22.16C29.6585 22.2133 29.4452 22.24 29.2319 22.24C27.4719 22.24 26.2452 22.4133 25.5519 22.76C24.8852 23.08 24.5519 23.7067 24.5519 24.64ZM43.925 31.32C42.885 31.32 42.1383 31.0267 41.685 30.44C41.2583 29.8267 41.045 29.0667 41.045 28.16V15.84H40.485C38.5117 15.84 37.525 15.04 37.525 13.44C37.525 11.8133 38.5117 11 40.485 11H41.045V10.84C41.045 7.74667 41.7117 5.25333 43.045 3.36C44.3783 1.46667 46.4183 0.519999 49.165 0.519999C49.1917 0.519999 49.2183 0.519999 49.245 0.519999H49.285C49.365 0.519999 49.445 0.519999 49.525 0.519999C51.7117 0.546665 53.2983 0.853332 54.285 1.44C55.2983 2.02667 55.805 2.92 55.805 4.12C55.805 5 55.565 5.58666 55.085 5.88C54.6317 6.14667 53.9917 6.28 53.165 6.28C52.445 6.28 51.8317 6.22667 51.325 6.12C50.845 5.98667 50.2183 5.89333 49.445 5.84H49.205C48.1383 5.84 47.445 6.25333 47.125 7.08C46.805 7.88 46.645 8.86667 46.645 10.04V11H48.925C50.7383 11 51.645 11.8133 51.645 13.44C51.645 15.04 50.7383 15.84 48.925 15.84H46.645V28.16C46.645 29.2533 46.405 30.0533 45.925 30.56C45.4717 31.0667 44.805 31.32 43.925 31.32ZM59.6672 31.32C58.6272 31.32 57.8805 31.0267 57.4272 30.44C57.0005 29.8267 56.7872 29.0667 56.7872 28.16V15.84H56.2272C54.2539 15.84 53.2672 15.04 53.2672 13.44C53.2672 11.8133 54.2539 11 56.2272 11H56.7872V10.84C56.7872 7.74667 57.4539 5.25333 58.7872 3.36C60.1205 1.46667 62.1605 0.519999 64.9072 0.519999C64.9339 0.519999 64.9605 0.519999 64.9872 0.519999H65.0272C65.1072 0.519999 65.1872 0.519999 65.2672 0.519999C67.4539 0.546665 69.0405 0.853332 70.0272 1.44C71.0405 2.02667 71.5472 2.92 71.5472 4.12C71.5472 5 71.3072 5.58666 70.8272 5.88C70.3739 6.14667 69.7339 6.28 68.9072 6.28C68.1872 6.28 67.5739 6.22667 67.0672 6.12C66.5872 5.98667 65.9605 5.89333 65.1872 5.84H64.9472C63.8805 5.84 63.1872 6.25333 62.8672 7.08C62.5472 7.88 62.3872 8.86667 62.3872 10.04V11H64.6672C66.4805 11 67.3872 11.8133 67.3872 13.44C67.3872 15.04 66.4805 15.84 64.6672 15.84H62.3872V28.16C62.3872 29.2533 62.1472 30.0533 61.6672 30.56C61.2139 31.0667 60.5472 31.32 59.6672 31.32ZM72.2106 31.32C70.2906 31.32 69.3306 30.4133 69.3306 28.6V13.44C69.3306 11.6 70.2906 10.68 72.2106 10.68C73.1706 10.68 73.864 10.8933 74.2906 11.32C74.7173 11.72 74.9306 12.3867 74.9306 13.32C75.4106 12.44 76.0906 11.7867 76.9706 11.36C77.8773 10.9067 78.9306 10.68 80.1306 10.68C82.424 10.68 83.5706 11.68 83.5706 13.68C83.5706 14.4267 83.2906 14.9867 82.7306 15.36C82.1706 15.7333 81.2506 15.92 79.9706 15.92C78.7173 15.92 77.7306 16.04 77.0106 16.28C76.2906 16.4933 75.784 16.9067 75.4906 17.52C75.224 18.1067 75.0906 18.96 75.0906 20.08V28.6C75.0906 30.4133 74.1306 31.32 72.2106 31.32ZM93.0384 31.32C90.1851 31.32 87.9318 30.5067 86.2784 28.88C84.6251 27.2533 83.7984 24.6267 83.7984 21C83.7984 17.3467 84.6251 14.72 86.2784 13.12C87.9318 11.4933 90.1851 10.68 93.0384 10.68C95.8918 10.68 98.1451 11.4933 99.7984 13.12C101.452 14.72 102.278 17.3467 102.278 21C102.278 24.6267 101.452 27.2533 99.7984 28.88C98.1451 30.5067 95.8918 31.32 93.0384 31.32ZM93.0384 26.52C93.7851 26.52 94.4118 26.3733 94.9184 26.08C95.4251 25.76 95.8118 25.2 96.0784 24.4C96.3718 23.6 96.5184 22.4667 96.5184 21C96.5184 19.5333 96.3718 18.4 96.0784 17.6C95.8118 16.8 95.4251 16.2533 94.9184 15.96C94.4118 15.64 93.7851 15.48 93.0384 15.48C92.3184 15.48 91.6918 15.64 91.1584 15.96C90.6518 16.2533 90.2518 16.8 89.9584 17.6C89.6918 18.4 89.5584 19.5333 89.5584 21C89.5584 22.4667 89.6918 23.6 89.9584 24.4C90.2518 25.2 90.6518 25.76 91.1584 26.08C91.6918 26.3733 92.3184 26.52 93.0384 26.52ZM109.008 31.32C107.088 31.32 106.128 30.4133 106.128 28.6V19C106.128 16.44 106.941 14.4133 108.568 12.92C110.221 11.4267 112.394 10.68 115.088 10.68C117.781 10.68 119.941 11.4267 121.568 12.92C123.221 14.4133 124.048 16.44 124.048 19V28.6C124.048 30.4133 123.088 31.32 121.168 31.32C119.248 31.32 118.288 30.4133 118.288 28.6V19.32C118.288 18.0667 118.008 17.12 117.448 16.48C116.888 15.8133 116.101 15.48 115.088 15.48C114.074 15.48 113.288 15.8133 112.728 16.48C112.168 17.12 111.888 18.0667 111.888 19.32V28.6C111.888 30.4133 110.928 31.32 109.008 31.32Z" fill="#00539F"/>
</svg>
