<svg width="74" height="56" viewBox="0 0 74 56" fill="none" xmlns="http://www.w3.org/2000/svg">
<path d="M19.2276 2.39822C17.2221 4.43881 16.8843 4.85955 17.0743 5.19614C17.4121 5.82726 51.5699 39.6969 52.1821 39.9914C55.1587 41.5061 55.8976 41.7796 57.9032 42.0741C64.7221 43.0838 71.2032 38.7713 73.0821 31.9763C73.5887 30.125 73.5887 27.1378 73.061 25.2865C72.3221 22.6358 71.4354 21.0791 69.5776 19.2278C67.0865 16.7455 65.2499 15.7778 61.9565 15.2098C60.3732 14.9363 59.7399 14.9153 58.1565 15.1256C55.4754 15.4833 53.9343 16.1144 51.6121 17.7973C49.5854 19.291 48.4665 20.469 48.6354 20.9739C48.7621 21.3947 53.2165 25.8756 53.5121 25.8756C53.5965 25.8756 54.3143 25.2865 55.0743 24.5502C57.5443 22.2151 59.8665 21.7523 62.5687 23.0356C63.7721 23.6036 64.8276 24.6764 65.5665 26.0859C66.1365 27.2219 66.0943 30.104 65.461 31.3031C64.7432 32.6916 63.3921 33.9117 61.9987 34.4587C60.4365 35.0477 59.2754 35.0477 57.6921 34.4587C56.531 34.0379 55.6443 33.1964 39.3676 16.9979C29.9521 7.65748 22.1199 -3.60399e-06 21.9299 -3.60399e-06C21.761 -3.60399e-06 20.5365 1.07289 19.2276 2.39822Z" fill="#4489F8"/>
<path d="M44.371 5.53275C41.331 8.56209 38.8398 11.1496 38.8398 11.2759C38.8398 11.5493 43.5687 16.1985 43.8643 16.1985C44.181 16.1985 55.0954 5.28031 55.0954 4.94372C55.0954 4.58609 50.5143 1.39587e-05 50.1765 1.39587e-05C50.0287 1.39587e-05 47.4321 2.48238 44.371 5.53275Z" fill="#4489F8"/>
<path d="M10.8676 13.9896C10.171 14.1579 9.19985 14.4104 8.73541 14.5997C7.82763 14.9153 5.88541 15.9461 5.69541 16.1775C5.63208 16.2616 5.18874 16.6193 4.68208 17.019C2.88763 18.4074 1.07208 21.3736 0.333188 24.1084C-0.131256 25.8756 -0.110145 28.8839 0.396522 30.693C1.57874 34.9846 4.51319 38.2664 8.75652 40.0545C10.171 40.6436 10.361 40.6856 13.5065 40.6856C16.631 40.7067 16.8421 40.6856 18.3199 40.0966C19.1643 39.781 20.3887 39.1499 21.001 38.7292C22.3099 37.8456 24.9065 35.4474 24.9065 35.1108C24.9065 34.8373 20.2199 30.083 19.9454 30.083C19.8399 30.083 19.1854 30.651 18.4465 31.3452C16.3143 33.3858 14.1187 34.059 11.9865 33.3227C9.89652 32.6074 8.9043 31.7449 7.91208 29.8726C7.59541 29.3046 7.51097 28.6945 7.51097 27.243C7.53208 25.56 7.59541 25.2234 8.10208 24.3609C8.67208 23.3511 10.4454 21.6682 10.8887 21.6682C11.0365 21.6682 11.4165 21.5209 11.7332 21.3526C12.5565 20.9319 14.4143 20.9529 15.7232 21.3947C16.6943 21.7102 18.3199 23.267 33.9843 38.8554C43.4632 48.259 51.3165 55.9585 51.4432 55.9585C51.5699 55.9585 52.7732 54.8646 54.1243 53.5393C56.151 51.5407 56.5521 51.0359 56.3832 50.7413C56.2776 50.552 48.4032 42.6631 38.9032 33.2175L21.6343 16.0513L19.8399 15.1887C16.9687 13.8003 13.781 13.3796 10.8676 13.9896Z" fill="#4489F8"/>
<path d="M23.7876 45.1876C20.811 48.1538 18.3621 50.7413 18.3621 50.9096C18.3621 51.2462 22.9854 55.9585 23.3232 55.9585C23.5554 55.9585 34.6176 44.9982 34.6176 44.7458C34.6176 44.4302 29.8465 39.76 29.5299 39.76C29.361 39.76 26.7854 42.2003 23.7876 45.1876Z" fill="#4489F8"/>
</svg>
